<svg width="31" height="30" viewBox="0 0 31 30" fill="none" xmlns="http://www.w3.org/2000/svg">
<path d="M24.3655 4.61538H22.4425V2.69231C22.4425 1.20769 21.2348 0 19.7502 0H10.5194C9.03477 0 7.82707 1.20769 7.82707 2.69231V4.61538H5.904C2.184 4.61538 0.134766 6.66462 0.134766 10.3846V10.5677V13.8508V24.2308C0.134766 27.9508 2.184 30 5.904 30H24.3655C28.0855 30 30.1348 27.9508 30.1348 24.2308V13.8508V10.5677V10.3846C30.1348 6.66462 28.0855 4.61538 24.3655 4.61538ZM10.1348 2.69231C10.1348 2.48 10.3071 2.30769 10.5194 2.30769H19.7502C19.9625 2.30769 20.1348 2.48 20.1348 2.69231V4.61538H10.1348V2.69231ZM2.44246 10.3846C2.44246 7.95846 3.47784 6.92308 5.904 6.92308H24.3655C26.7917 6.92308 27.8271 7.95846 27.8271 10.3846V10.5677V13.8508C27.8271 14.3139 27.564 14.7184 27.1409 14.9076C25.8102 15.5014 23.5425 16.3477 20.3009 17.0093C20.1425 17.0416 19.9717 16.9201 19.8794 16.7847C18.764 15.1185 16.9917 14.1247 15.1348 14.1247C13.2778 14.1247 11.5055 15.1185 10.3902 16.7847C10.2994 16.9216 10.1348 17.0447 9.96861 17.0093C6.72861 16.3477 4.45938 15.5014 3.12861 14.9076C2.70553 14.7184 2.44246 14.3139 2.44246 13.8508V10.5677V10.3846ZM24.3655 27.6923H5.904C3.47784 27.6923 2.44246 26.6569 2.44246 24.2308V17.1231C3.904 17.7554 6.24708 18.6031 9.50554 19.2693C10.5671 19.4847 11.6717 19.0154 12.3071 18.0662C12.9932 17.0416 14.0502 16.4309 15.1348 16.4309C16.2194 16.4309 17.2763 17.0416 17.9609 18.0662C18.4932 18.8616 19.3517 19.3215 20.2425 19.3215C20.4148 19.3215 20.5886 19.3047 20.7609 19.2693C24.0209 18.6031 26.364 17.7554 27.8255 17.1231V24.2308C27.8271 26.6569 26.7917 27.6923 24.3655 27.6923ZM16.704 19.6154C16.704 20.4646 16.0148 21.1538 15.1655 21.1538C14.3163 21.1538 13.6194 20.4646 13.6194 19.6154C13.6194 18.7662 14.2994 18.0769 15.1501 18.0769H15.1655C16.0148 18.0769 16.704 18.7662 16.704 19.6154Z" fill="#25314C"/>
</svg>
