<svg width="21" height="20" viewBox="0 0 21 20" fill="none" xmlns="http://www.w3.org/2000/svg">
<path d="M18.6783 7.56734L6.34351 0.567054C4.69015 -0.373913 2.67127 -0.125594 1.32068 1.17657C-0.022338 2.47258 -0.246322 4.38121 0.763645 5.92452L3.43135 10.0003L0.763645 14.0761C-0.247404 15.6194 -0.0234195 17.528 1.32068 18.8241C2.12411 19.5988 3.1631 20 4.22281 20C4.94298 20 5.67416 19.8143 6.34351 19.4336L18.6783 12.4333C19.5909 11.9161 20.1348 11.0059 20.1348 10.0003C20.1348 8.9947 19.5909 8.08451 18.6783 7.56734ZM17.8467 11.1127L5.51191 18.1129C4.28027 18.8107 3.10686 18.352 2.47752 17.7446C1.85467 17.1432 1.39209 16.034 2.14145 14.8878L4.83713 10.7689H10.6731C11.1207 10.7689 11.4841 10.4241 11.4841 9.99928C11.4841 9.57446 11.1207 9.22968 10.6731 9.22968H4.83713L2.14145 5.11076C1.39209 3.96457 1.85359 2.85532 2.47752 2.254C2.88194 1.86407 3.5102 1.53469 4.23469 1.53469C4.63803 1.53469 5.07073 1.63627 5.51191 1.88664L17.8467 8.88696C18.2641 9.124 18.5128 9.53957 18.5128 9.99928C18.5128 10.459 18.2641 10.8756 17.8467 11.1127Z" fill="white"/>
</svg>
