<svg width="24" height="22" viewBox="0 0 24 22" fill="none" xmlns="http://www.w3.org/2000/svg">
<path d="M12.1348 0L14.8289 8.2918H23.5474L16.494 13.4164L19.1882 21.7082L12.1348 16.5836L5.08134 21.7082L7.77551 13.4164L0.722088 8.2918H9.4406L12.1348 0Z" fill="#FFF500"/>
<path d="M12.1348 1.61804L14.3534 8.4463L14.4657 8.7918H14.8289H22.0086L16.2001 13.0119L15.9062 13.2254L16.0185 13.5709L18.2371 20.3992L12.4287 16.1791L12.1348 15.9656L11.8409 16.1791L6.0324 20.3992L8.25104 13.5709L8.3633 13.2254L8.0694 13.0119L2.26093 8.7918H9.4406H9.80387L9.91613 8.4463L12.1348 1.61804Z" stroke="black" stroke-opacity="0.5"/>
</svg>
